<svg width="20" height="20" viewBox="0 0 20 20" fill="none" xmlns="http://www.w3.org/2000/svg">
<path fill-rule="evenodd" clip-rule="evenodd" d="M0.833365 4.98555C0.83323 4.99377 0.833216 5.00199 0.833323 5.01021V15C0.833323 16.3769 1.95642 17.5 3.33332 17.5H16.6667C18.0436 17.5 19.1667 16.3769 19.1667 15V5.0103C19.1668 5.00202 19.1668 4.99372 19.1666 4.98543C19.1587 3.61518 18.0387 2.5 16.6667 2.5H3.33332C1.96124 2.5 0.84119 3.61525 0.833365 4.98555ZM2.5888 4.62829C2.72662 4.35577 3.01002 4.16667 3.33332 4.16667H16.6667C16.99 4.16667 17.2734 4.35577 17.4112 4.62829L9.99999 9.81612L2.5888 4.62829ZM17.5 6.60055V15C17.5 15.4564 17.1231 15.8333 16.6667 15.8333H3.33332C2.87689 15.8333 2.49999 15.4564 2.49999 15V6.60055L9.52211 11.516C9.80904 11.7169 10.1909 11.7169 10.4779 11.516L17.5 6.60055Z" fill="#12F7D6"/>
</svg>
